<svg xmlns="http://www.w3.org/2000/svg" xmlns:xlink="http://www.w3.org/1999/xlink" width="500" zoomAndPan="magnify" viewBox="0 0 375 374.999991" height="500" preserveAspectRatio="xMidYMid meet" version="1.0"><defs><clipPath id="dcc31ffca4"><path d="M 122.269531 91.613281 L 270.769531 91.613281 L 270.769531 283.613281 L 122.269531 283.613281 Z M 122.269531 91.613281 " clip-rule="nonzero"/></clipPath></defs><rect x="-37.5" width="450" fill="#ffffff" y="-37.499999" height="449.999989" fill-opacity="1"/><rect x="-37.5" width="450" fill="#ffffff" y="-37.499999" height="449.999989" fill-opacity="1"/><rect x="-37.5" width="450" fill="#1089ff" y="-37.499999" height="449.999989" fill-opacity="1"/><g clip-path="url(#dcc31ffca4)"><path fill="#fffaf3" d="M 270.769531 269.089844 C 270.769531 217.867188 237.5 176.371094 196.519531 176.371094 C 155.539062 176.371094 122.269531 217.867188 122.269531 269.089844 C 122.269531 277.074219 155.539062 283.585938 196.519531 283.585938 C 237.5 283.585938 270.769531 277.074219 270.769531 269.089844 Z M 196.519531 91.640625 C 218.871094 91.640625 236.980469 109.785156 236.980469 132.183594 C 236.980469 154.582031 218.871094 172.726562 196.519531 172.726562 C 174.167969 172.726562 156.058594 154.582031 156.058594 132.183594 C 156.058594 109.785156 174.167969 91.640625 196.519531 91.640625 Z M 196.519531 91.640625 " fill-opacity="1" fill-rule="evenodd"/></g></svg>