<svg xmlns="http://www.w3.org/2000/svg" xmlns:xlink="http://www.w3.org/1999/xlink" width="500" zoomAndPan="magnify" viewBox="0 0 375 374.999991" height="500" preserveAspectRatio="xMidYMid meet" version="1.0"><defs><clipPath id="1b318b5fc1"><path d="M 145 89.25 L 248 89.25 L 248 192 L 145 192 Z M 145 89.25 " clip-rule="nonzero"/></clipPath><clipPath id="b99ddab5cd"><path d="M 131.023438 176 L 262.273438 176 L 262.273438 285.75 L 131.023438 285.75 Z M 131.023438 176 " clip-rule="nonzero"/></clipPath></defs><rect x="-37.5" width="450" fill="#ffffff" y="-37.499999" height="449.999989" fill-opacity="1"/><rect x="-37.5" width="450" fill="#1089ff" y="-37.499999" height="449.999989" fill-opacity="1"/><g clip-path="url(#1b318b5fc1)"><path fill="#ffffff" d="M 240.359375 191.136719 L 152.933594 191.136719 C 152.453125 191.136719 151.980469 191.09375 151.511719 191 C 151.042969 190.90625 150.585938 190.765625 150.144531 190.585938 C 149.703125 190.402344 149.285156 190.175781 148.886719 189.910156 C 148.488281 189.644531 148.121094 189.34375 147.78125 189.007812 C 147.445312 188.667969 147.140625 188.300781 146.875 187.902344 C 146.609375 187.507812 146.386719 187.085938 146.203125 186.644531 C 146.019531 186.203125 145.882812 185.75 145.789062 185.28125 C 145.695312 184.8125 145.648438 184.339844 145.648438 183.859375 L 145.648438 140.195312 C 145.648438 138.527344 145.730469 136.859375 145.894531 135.199219 C 146.058594 133.539062 146.300781 131.890625 146.628906 130.253906 C 146.953125 128.617188 147.359375 127.003906 147.84375 125.40625 C 148.328125 123.808594 148.890625 122.238281 149.53125 120.699219 C 150.167969 119.15625 150.882812 117.652344 151.667969 116.179688 C 152.457031 114.707031 153.316406 113.277344 154.242188 111.890625 C 155.171875 110.503906 156.164062 109.164062 157.222656 107.875 C 158.285156 106.585938 159.402344 105.351562 160.585938 104.171875 C 161.765625 102.992188 163.003906 101.871094 164.292969 100.8125 C 165.585938 99.753906 166.925781 98.761719 168.3125 97.835938 C 169.703125 96.910156 171.132812 96.050781 172.605469 95.265625 C 174.078125 94.480469 175.585938 93.765625 177.128906 93.128906 C 178.671875 92.488281 180.246094 91.925781 181.84375 91.441406 C 183.441406 90.957031 185.058594 90.554688 186.699219 90.226562 C 188.335938 89.902344 189.984375 89.660156 191.648438 89.496094 C 193.308594 89.332031 194.976562 89.25 196.648438 89.25 C 198.316406 89.25 199.984375 89.332031 201.644531 89.496094 C 203.308594 89.660156 204.957031 89.902344 206.597656 90.226562 C 208.234375 90.554688 209.851562 90.957031 211.449219 91.441406 C 213.050781 91.925781 214.621094 92.488281 216.164062 93.128906 C 217.707031 93.765625 219.214844 94.480469 220.6875 95.265625 C 222.160156 96.050781 223.589844 96.910156 224.980469 97.835938 C 226.371094 98.761719 227.710938 99.753906 229 100.8125 C 230.292969 101.871094 231.527344 102.992188 232.707031 104.171875 C 233.890625 105.351562 235.011719 106.585938 236.070312 107.875 C 237.128906 109.164062 238.125 110.503906 239.050781 111.890625 C 239.980469 113.277344 240.835938 114.707031 241.625 116.179688 C 242.410156 117.652344 243.125 119.15625 243.765625 120.699219 C 244.402344 122.238281 244.964844 123.808594 245.449219 125.40625 C 245.933594 127.003906 246.339844 128.617188 246.667969 130.253906 C 246.992188 131.890625 247.238281 133.539062 247.402344 135.199219 C 247.5625 136.859375 247.644531 138.527344 247.644531 140.195312 L 247.644531 183.859375 C 247.644531 184.339844 247.597656 184.8125 247.507812 185.28125 C 247.414062 185.75 247.273438 186.203125 247.089844 186.644531 C 246.910156 187.085938 246.683594 187.507812 246.417969 187.902344 C 246.152344 188.300781 245.851562 188.667969 245.511719 189.007812 C 245.171875 189.34375 244.804688 189.644531 244.40625 189.910156 C 244.011719 190.175781 243.589844 190.402344 243.148438 190.585938 C 242.707031 190.765625 242.25 190.90625 241.78125 191 C 241.3125 191.09375 240.839844 191.136719 240.359375 191.136719 Z M 160.21875 176.582031 L 233.074219 176.582031 L 233.074219 140.195312 C 233.074219 139.003906 233.015625 137.8125 232.898438 136.628906 C 232.78125 135.441406 232.609375 134.265625 232.375 133.09375 C 232.140625 131.925781 231.851562 130.769531 231.507812 129.632812 C 231.160156 128.492188 230.757812 127.371094 230.300781 126.269531 C 229.84375 125.167969 229.335938 124.089844 228.773438 123.039062 C 228.210938 121.988281 227.597656 120.96875 226.9375 119.976562 C 226.273438 118.988281 225.5625 118.03125 224.804688 117.109375 C 224.050781 116.1875 223.25 115.304688 222.40625 114.464844 C 221.5625 113.621094 220.679688 112.820312 219.757812 112.066406 C 218.835938 111.308594 217.878906 110.601562 216.886719 109.9375 C 215.894531 109.277344 214.871094 108.664062 213.820312 108.101562 C 212.765625 107.539062 211.691406 107.03125 210.585938 106.574219 C 209.484375 106.117188 208.363281 105.71875 207.222656 105.371094 C 206.078125 105.027344 204.921875 104.738281 203.753906 104.503906 C 202.582031 104.273438 201.40625 104.097656 200.21875 103.980469 C 199.03125 103.863281 197.839844 103.804688 196.648438 103.804688 C 195.453125 103.804688 194.261719 103.863281 193.078125 103.980469 C 191.890625 104.097656 190.710938 104.273438 189.539062 104.503906 C 188.371094 104.738281 187.214844 105.027344 186.074219 105.371094 C 184.929688 105.71875 183.808594 106.117188 182.707031 106.574219 C 181.605469 107.03125 180.527344 107.539062 179.476562 108.101562 C 178.421875 108.664062 177.402344 109.277344 176.410156 109.9375 C 175.417969 110.601562 174.460938 111.308594 173.539062 112.066406 C 172.613281 112.820312 171.730469 113.621094 170.886719 114.464844 C 170.042969 115.304688 169.246094 116.1875 168.488281 117.109375 C 167.730469 118.03125 167.019531 118.988281 166.359375 119.976562 C 165.695312 120.96875 165.082031 121.988281 164.519531 123.039062 C 163.957031 124.089844 163.449219 125.167969 162.992188 126.269531 C 162.535156 127.371094 162.132812 128.492188 161.789062 129.632812 C 161.441406 130.769531 161.152344 131.925781 160.917969 133.09375 C 160.6875 134.265625 160.511719 135.441406 160.394531 136.628906 C 160.277344 137.8125 160.21875 139.003906 160.21875 140.195312 Z M 160.21875 176.582031 " fill-opacity="1" fill-rule="nonzero"/></g><path fill="#ffffff" d="M 203.933594 220.25 C 203.933594 220.726562 203.886719 221.199219 203.792969 221.667969 C 203.699219 222.136719 203.5625 222.59375 203.378906 223.035156 C 203.195312 223.476562 202.96875 223.894531 202.703125 224.292969 C 202.4375 224.691406 202.136719 225.058594 201.796875 225.394531 C 201.460938 225.734375 201.09375 226.035156 200.695312 226.300781 C 200.296875 226.566406 199.875 226.789062 199.433594 226.972656 C 198.992188 227.15625 198.539062 227.292969 198.066406 227.386719 C 197.597656 227.480469 197.125 227.527344 196.648438 227.527344 C 196.167969 227.527344 195.695312 227.480469 195.226562 227.386719 C 194.757812 227.292969 194.300781 227.15625 193.859375 226.972656 C 193.417969 226.789062 192.996094 226.566406 192.597656 226.300781 C 192.203125 226.035156 191.832031 225.734375 191.496094 225.394531 C 191.15625 225.058594 190.855469 224.691406 190.589844 224.292969 C 190.324219 223.894531 190.097656 223.476562 189.914062 223.035156 C 189.734375 222.59375 189.59375 222.136719 189.5 221.667969 C 189.40625 221.199219 189.359375 220.726562 189.359375 220.25 C 189.359375 219.773438 189.40625 219.296875 189.5 218.828125 C 189.59375 218.359375 189.734375 217.90625 189.914062 217.464844 C 190.097656 217.023438 190.324219 216.605469 190.589844 216.207031 C 190.855469 215.808594 191.15625 215.441406 191.496094 215.101562 C 191.832031 214.765625 192.203125 214.464844 192.597656 214.199219 C 192.996094 213.933594 193.417969 213.707031 193.859375 213.527344 C 194.300781 213.34375 194.757812 213.203125 195.226562 213.113281 C 195.695312 213.019531 196.167969 212.972656 196.648438 212.972656 C 197.125 212.972656 197.597656 213.019531 198.066406 213.113281 C 198.539062 213.203125 198.992188 213.34375 199.433594 213.527344 C 199.875 213.707031 200.296875 213.933594 200.695312 214.199219 C 201.09375 214.464844 201.460938 214.765625 201.796875 215.101562 C 202.136719 215.441406 202.4375 215.808594 202.703125 216.207031 C 202.96875 216.605469 203.195312 217.023438 203.378906 217.464844 C 203.5625 217.90625 203.699219 218.359375 203.792969 218.828125 C 203.886719 219.296875 203.933594 219.773438 203.933594 220.25 Z M 203.933594 220.25 " fill-opacity="1" fill-rule="nonzero"/><g clip-path="url(#b99ddab5cd)"><path fill="#ffffff" d="M 247.644531 176.582031 L 145.648438 176.582031 C 144.691406 176.582031 143.742188 176.675781 142.804688 176.863281 C 141.867188 177.050781 140.957031 177.324219 140.070312 177.691406 C 139.1875 178.054688 138.347656 178.503906 137.550781 179.035156 C 136.757812 179.566406 136.019531 180.171875 135.34375 180.847656 C 134.667969 181.523438 134.0625 182.257812 133.53125 183.050781 C 133 183.847656 132.550781 184.683594 132.1875 185.566406 C 131.820312 186.453125 131.542969 187.363281 131.355469 188.296875 C 131.171875 189.234375 131.078125 190.183594 131.078125 191.136719 L 131.078125 271.195312 C 131.078125 272.148438 131.171875 273.097656 131.355469 274.035156 C 131.542969 274.972656 131.820312 275.882812 132.1875 276.765625 C 132.550781 277.648438 133 278.484375 133.53125 279.28125 C 134.0625 280.074219 134.667969 280.808594 135.34375 281.488281 C 136.019531 282.164062 136.757812 282.765625 137.550781 283.296875 C 138.347656 283.828125 139.1875 284.277344 140.070312 284.640625 C 140.957031 285.007812 141.867188 285.285156 142.804688 285.46875 C 143.742188 285.65625 144.691406 285.75 145.648438 285.75 L 247.644531 285.75 C 248.601562 285.75 249.550781 285.65625 250.488281 285.46875 C 251.425781 285.285156 252.339844 285.007812 253.222656 284.640625 C 254.105469 284.277344 254.945312 283.828125 255.742188 283.296875 C 256.535156 282.765625 257.273438 282.164062 257.949219 281.488281 C 258.625 280.808594 259.230469 280.074219 259.761719 279.28125 C 260.292969 278.484375 260.742188 277.648438 261.109375 276.765625 C 261.472656 275.882812 261.75 274.972656 261.9375 274.035156 C 262.125 273.097656 262.21875 272.148438 262.21875 271.195312 L 262.21875 191.136719 C 262.21875 190.183594 262.125 189.234375 261.9375 188.296875 C 261.75 187.363281 261.472656 186.453125 261.109375 185.566406 C 260.742188 184.683594 260.292969 183.847656 259.761719 183.050781 C 259.230469 182.257812 258.625 181.523438 257.949219 180.847656 C 257.273438 180.171875 256.535156 179.566406 255.742188 179.035156 C 254.945312 178.503906 254.105469 178.054688 253.222656 177.691406 C 252.339844 177.324219 251.425781 177.050781 250.488281 176.863281 C 249.550781 176.675781 248.601562 176.582031 247.644531 176.582031 Z M 203.933594 240.742188 L 203.933594 256.636719 C 203.933594 257.117188 203.886719 257.589844 203.792969 258.058594 C 203.699219 258.527344 203.5625 258.980469 203.378906 259.421875 C 203.195312 259.863281 202.96875 260.285156 202.703125 260.683594 C 202.4375 261.078125 202.136719 261.445312 201.796875 261.785156 C 201.460938 262.121094 201.09375 262.425781 200.695312 262.691406 C 200.296875 262.957031 199.875 263.179688 199.433594 263.363281 C 198.992188 263.546875 198.539062 263.683594 198.066406 263.777344 C 197.597656 263.871094 197.125 263.917969 196.648438 263.917969 C 196.167969 263.917969 195.695312 263.871094 195.226562 263.777344 C 194.757812 263.683594 194.300781 263.546875 193.859375 263.363281 C 193.417969 263.179688 192.996094 262.957031 192.597656 262.691406 C 192.203125 262.425781 191.832031 262.121094 191.496094 261.785156 C 191.15625 261.445312 190.855469 261.078125 190.589844 260.683594 C 190.324219 260.285156 190.097656 259.863281 189.914062 259.421875 C 189.734375 258.980469 189.59375 258.527344 189.5 258.058594 C 189.40625 257.589844 189.359375 257.117188 189.359375 256.636719 L 189.359375 240.742188 C 188.558594 240.460938 187.773438 240.132812 187.011719 239.757812 C 186.246094 239.382812 185.507812 238.960938 184.792969 238.5 C 184.074219 238.039062 183.390625 237.539062 182.734375 236.996094 C 182.078125 236.457031 181.453125 235.878906 180.863281 235.265625 C 180.277344 234.648438 179.722656 234.003906 179.210938 233.324219 C 178.699219 232.644531 178.226562 231.941406 177.792969 231.207031 C 177.363281 230.472656 176.976562 229.714844 176.632812 228.9375 C 176.292969 228.160156 175.996094 227.363281 175.746094 226.550781 C 175.5 225.734375 175.296875 224.910156 175.144531 224.074219 C 174.992188 223.238281 174.886719 222.394531 174.835938 221.546875 C 174.78125 220.695312 174.777344 219.847656 174.820312 219 C 174.867188 218.148438 174.960938 217.304688 175.105469 216.46875 C 175.25 215.628906 175.441406 214.800781 175.683594 213.984375 C 175.921875 213.167969 176.210938 212.371094 176.542969 211.589844 C 176.878906 210.804688 177.257812 210.046875 177.679688 209.308594 C 178.105469 208.570312 178.570312 207.859375 179.074219 207.175781 C 179.582031 206.492188 180.125 205.839844 180.707031 205.21875 C 181.292969 204.597656 181.90625 204.015625 182.558594 203.464844 C 183.210938 202.917969 183.890625 202.410156 184.601562 201.941406 C 185.3125 201.472656 186.046875 201.046875 186.808594 200.664062 C 187.566406 200.28125 188.347656 199.941406 189.148438 199.652344 C 189.949219 199.359375 190.761719 199.113281 191.589844 198.917969 C 192.417969 198.722656 193.253906 198.574219 194.101562 198.472656 C 194.945312 198.375 195.796875 198.324219 196.648438 198.324219 C 197.5 198.324219 198.347656 198.375 199.191406 198.472656 C 200.039062 198.574219 200.875 198.722656 201.703125 198.917969 C 202.53125 199.113281 203.347656 199.359375 204.144531 199.652344 C 204.945312 199.941406 205.726562 200.28125 206.484375 200.664062 C 207.246094 201.046875 207.980469 201.472656 208.691406 201.941406 C 209.402344 202.410156 210.082031 202.917969 210.734375 203.464844 C 211.386719 204.015625 212.003906 204.597656 212.585938 205.21875 C 213.167969 205.839844 213.710938 206.492188 214.21875 207.175781 C 214.726562 207.859375 215.191406 208.570312 215.613281 209.308594 C 216.035156 210.046875 216.414062 210.804688 216.75 211.589844 C 217.082031 212.371094 217.371094 213.167969 217.613281 213.984375 C 217.851562 214.800781 218.042969 215.628906 218.1875 216.46875 C 218.332031 217.304688 218.425781 218.148438 218.472656 219 C 218.519531 219.847656 218.511719 220.695312 218.460938 221.546875 C 218.40625 222.394531 218.300781 223.238281 218.148438 224.074219 C 217.996094 224.910156 217.796875 225.734375 217.546875 226.550781 C 217.296875 227.363281 217 228.160156 216.660156 228.9375 C 216.316406 229.714844 215.929688 230.472656 215.5 231.207031 C 215.070312 231.941406 214.597656 232.644531 214.082031 233.324219 C 213.570312 234.003906 213.019531 234.648438 212.429688 235.265625 C 211.839844 235.878906 211.21875 236.457031 210.558594 236.996094 C 209.902344 237.539062 209.21875 238.039062 208.503906 238.5 C 207.789062 238.960938 207.046875 239.382812 206.28125 239.757812 C 205.519531 240.132812 204.734375 240.460938 203.933594 240.742188 Z M 203.933594 240.742188 " fill-opacity="1" fill-rule="nonzero"/></g></svg>