<svg xmlns="http://www.w3.org/2000/svg" xmlns:xlink="http://www.w3.org/1999/xlink" width="500" zoomAndPan="magnify" viewBox="0 0 375 374.999991" height="500" preserveAspectRatio="xMidYMid meet" version="1.0"><defs><g/><clipPath id="e257f55fe0"><path d="M 55.300781 127.515625 L 373 127.515625 L 373 244.273438 L 55.300781 244.273438 Z M 55.300781 127.515625 " clip-rule="nonzero"/></clipPath><clipPath id="0658d05937"><path d="M 305.695312 127.515625 C 342.542969 127.515625 372.414062 153.621094 372.414062 185.820312 C 372.414062 218.019531 342.542969 244.121094 305.695312 244.121094 L 122.019531 244.121094 C 85.171875 244.121094 55.300781 218.019531 55.300781 185.820312 C 55.300781 153.621094 85.171875 127.515625 122.019531 127.515625 L 305.695312 127.515625 " clip-rule="nonzero"/></clipPath><clipPath id="48b7d38276"><path d="M 0 108.203125 L 151.921875 108.203125 L 151.921875 265.71875 L 0 265.71875 Z M 0 108.203125 " clip-rule="nonzero"/></clipPath><clipPath id="e794f67e09"><path d="M 73.164062 108.203125 C 29.667969 108.203125 -5.59375 143.464844 -5.59375 186.960938 C -5.59375 230.457031 29.667969 265.71875 73.164062 265.71875 C 116.660156 265.71875 151.921875 230.457031 151.921875 186.960938 C 151.921875 143.464844 116.660156 108.203125 73.164062 108.203125 " clip-rule="nonzero"/></clipPath><clipPath id="5a3d415d25"><path d="M 4.035156 116.691406 L 142.035156 116.691406 L 142.035156 254.691406 L 4.035156 254.691406 Z M 4.035156 116.691406 " clip-rule="nonzero"/></clipPath></defs><g clip-path="url(#e257f55fe0)"><g clip-path="url(#0658d05937)"><path fill="#1089ff" d="M 55.300781 127.515625 L 372.210938 127.515625 L 372.210938 244.273438 L 55.300781 244.273438 Z M 55.300781 127.515625 " fill-opacity="1" fill-rule="nonzero"/></g></g><g clip-path="url(#48b7d38276)"><g clip-path="url(#e794f67e09)"><path fill="#ffffff" d="M -5.59375 108.203125 L 151.921875 108.203125 L 151.921875 265.71875 L -5.59375 265.71875 Z M -5.59375 108.203125 " fill-opacity="1" fill-rule="nonzero"/></g></g><path fill="#ffffff" d="M 128.234375 185.691406 C 128.234375 216.171875 103.519531 240.890625 73.035156 240.890625 C 42.550781 240.890625 17.835938 216.171875 17.835938 185.691406 C 17.835938 155.207031 42.550781 130.488281 73.035156 130.488281 C 103.519531 130.488281 128.234375 155.207031 128.234375 185.691406 " fill-opacity="1" fill-rule="nonzero"/><g clip-path="url(#5a3d415d25)"><path fill="#1089ff" d="M 73.035156 121.289062 C 37.519531 121.289062 8.632812 150.175781 8.632812 185.691406 C 8.632812 221.203125 37.519531 250.089844 73.035156 250.089844 C 108.550781 250.089844 137.433594 221.203125 137.433594 185.691406 C 137.433594 150.175781 108.550781 121.289062 73.035156 121.289062 Z M 73.035156 254.691406 C 34.984375 254.691406 4.035156 223.738281 4.035156 185.691406 C 4.035156 147.640625 34.984375 116.691406 73.035156 116.691406 C 111.082031 116.691406 142.035156 147.640625 142.035156 185.691406 C 142.035156 223.738281 111.082031 254.691406 73.035156 254.691406 " fill-opacity="1" fill-rule="nonzero"/></g><path fill="#1089ff" d="M 73.035156 181.089844 C 57.574219 181.089844 44.671875 191.988281 41.5625 206.515625 C 48.679688 216.191406 60.105469 222.488281 73.035156 222.488281 C 85.964844 222.488281 97.390625 216.191406 104.507812 206.515625 C 101.398438 191.988281 88.496094 181.089844 73.035156 181.089844 " fill-opacity="1" fill-rule="nonzero"/><path fill="#1089ff" d="M 56.933594 164.988281 C 56.933594 173.882812 64.140625 181.089844 73.035156 181.089844 C 81.929688 181.089844 89.132812 173.882812 89.132812 164.988281 C 89.132812 156.09375 81.929688 148.890625 73.035156 148.890625 C 64.140625 148.890625 56.933594 156.09375 56.933594 164.988281 " fill-opacity="1" fill-rule="nonzero"/><g fill="#fffaf3" fill-opacity="1"><g transform="translate(165.644141, 204.451403)"><g><path d="M 33.71875 -10.640625 C 33.71875 -7.023438 32.375 -4.257812 29.6875 -2.34375 C 27.007812 -0.425781 23.070312 0.53125 17.875 0.53125 C 13.144531 0.53125 9.429688 -0.304688 6.734375 -1.984375 C 4.046875 -3.671875 2.316406 -6.21875 1.546875 -9.625 L 9.015625 -10.859375 C 9.523438 -8.898438 10.515625 -7.476562 11.984375 -6.59375 C 13.453125 -5.707031 15.488281 -5.265625 18.09375 -5.265625 C 23.488281 -5.265625 26.1875 -6.910156 26.1875 -10.203125 C 26.1875 -11.242188 25.875 -12.101562 25.25 -12.78125 C 24.632812 -13.46875 23.765625 -14.035156 22.640625 -14.484375 C 21.515625 -14.941406 19.347656 -15.492188 16.140625 -16.140625 C 13.378906 -16.796875 11.457031 -17.316406 10.375 -17.703125 C 9.289062 -18.097656 8.3125 -18.5625 7.4375 -19.09375 C 6.570312 -19.625 5.832031 -20.265625 5.21875 -21.015625 C 4.601562 -21.773438 4.125 -22.660156 3.78125 -23.671875 C 3.445312 -24.679688 3.28125 -25.84375 3.28125 -27.15625 C 3.28125 -30.5 4.53125 -33.054688 7.03125 -34.828125 C 9.539062 -36.597656 13.191406 -37.484375 17.984375 -37.484375 C 22.554688 -37.484375 25.992188 -36.765625 28.296875 -35.328125 C 30.597656 -33.898438 32.078125 -31.535156 32.734375 -28.234375 L 25.25 -27.203125 C 24.863281 -28.796875 24.078125 -29.992188 22.890625 -30.796875 C 21.710938 -31.609375 20.023438 -32.015625 17.828125 -32.015625 C 13.140625 -32.015625 10.796875 -30.546875 10.796875 -27.609375 C 10.796875 -26.640625 11.046875 -25.847656 11.546875 -25.234375 C 12.046875 -24.628906 12.785156 -24.113281 13.765625 -23.6875 C 14.742188 -23.257812 16.726562 -22.722656 19.71875 -22.078125 C 23.257812 -21.328125 25.796875 -20.628906 27.328125 -19.984375 C 28.859375 -19.347656 30.066406 -18.601562 30.953125 -17.75 C 31.847656 -16.90625 32.53125 -15.894531 33 -14.71875 C 33.476562 -13.539062 33.71875 -12.179688 33.71875 -10.640625 Z M 33.71875 -10.640625 "/></g></g></g><g fill="#fffaf3" fill-opacity="1"><g transform="translate(201.442723, 204.451403)"><g><path d="M 3.75 -33.46875 L 3.75 -38.90625 L 11.109375 -38.90625 L 11.109375 -33.46875 Z M 3.75 0 L 3.75 -28.359375 L 11.109375 -28.359375 L 11.109375 0 Z M 3.75 0 "/></g></g></g><g fill="#fffaf3" fill-opacity="1"><g transform="translate(216.354431, 204.451403)"><g><path d="M 15.625 11.375 C 12.164062 11.375 9.378906 10.710938 7.265625 9.390625 C 5.160156 8.078125 3.863281 6.195312 3.375 3.75 L 10.75 2.890625 C 11.007812 4.023438 11.570312 4.914062 12.4375 5.5625 C 13.300781 6.207031 14.429688 6.53125 15.828125 6.53125 C 17.878906 6.53125 19.375 5.898438 20.3125 4.640625 C 21.257812 3.378906 21.734375 1.507812 21.734375 -0.96875 L 21.734375 -2.46875 L 21.78125 -5.265625 L 21.734375 -5.265625 C 20.109375 -1.785156 17.066406 -0.046875 12.609375 -0.046875 C 9.304688 -0.046875 6.742188 -1.285156 4.921875 -3.765625 C 3.109375 -6.253906 2.203125 -9.804688 2.203125 -14.421875 C 2.203125 -19.046875 3.132812 -22.617188 5 -25.140625 C 6.875 -27.660156 9.59375 -28.921875 13.15625 -28.921875 C 17.28125 -28.921875 20.140625 -27.210938 21.734375 -23.796875 L 21.859375 -23.796875 C 21.859375 -24.410156 21.894531 -25.238281 21.96875 -26.28125 C 22.050781 -27.332031 22.140625 -28.023438 22.234375 -28.359375 L 29.203125 -28.359375 C 29.097656 -26.472656 29.046875 -24.289062 29.046875 -21.8125 L 29.046875 -0.859375 C 29.046875 3.171875 27.898438 6.21875 25.609375 8.28125 C 23.316406 10.34375 19.988281 11.375 15.625 11.375 Z M 21.78125 -14.578125 C 21.78125 -17.492188 21.257812 -19.769531 20.21875 -21.40625 C 19.1875 -23.039062 17.707031 -23.859375 15.78125 -23.859375 C 11.851562 -23.859375 9.890625 -20.710938 9.890625 -14.421875 C 9.890625 -8.253906 11.835938 -5.171875 15.734375 -5.171875 C 17.691406 -5.171875 19.1875 -5.984375 20.21875 -7.609375 C 21.257812 -9.242188 21.78125 -11.566406 21.78125 -14.578125 Z M 21.78125 -14.578125 "/></g></g></g><g fill="#fffaf3" fill-opacity="1"><g transform="translate(249.139224, 204.451403)"><g><path d="M 22.125 0 L 22.125 -15.90625 C 22.125 -20.894531 20.4375 -23.390625 17.0625 -23.390625 C 15.28125 -23.390625 13.84375 -22.625 12.75 -21.09375 C 11.65625 -19.5625 11.109375 -17.597656 11.109375 -15.203125 L 11.109375 0 L 3.75 0 L 3.75 -22.015625 C 3.75 -23.535156 3.726562 -24.78125 3.6875 -25.75 C 3.644531 -26.71875 3.59375 -27.585938 3.53125 -28.359375 L 10.5625 -28.359375 C 10.613281 -28.023438 10.679688 -27.140625 10.765625 -25.703125 C 10.859375 -24.265625 10.90625 -23.273438 10.90625 -22.734375 L 11.015625 -22.734375 C 12.003906 -24.898438 13.25 -26.472656 14.75 -27.453125 C 16.257812 -28.429688 18.054688 -28.921875 20.140625 -28.921875 C 23.140625 -28.921875 25.441406 -27.992188 27.046875 -26.140625 C 28.660156 -24.285156 29.46875 -21.578125 29.46875 -18.015625 L 29.46875 0 Z M 22.125 0 "/></g></g></g><g fill="#fffaf3" fill-opacity="1"><g transform="translate(281.924017, 204.451403)"><g/></g></g><g fill="#fffaf3" fill-opacity="1"><g transform="translate(296.835725, 204.451403)"><g><path d="M 3.75 -33.46875 L 3.75 -38.90625 L 11.109375 -38.90625 L 11.109375 -33.46875 Z M 3.75 0 L 3.75 -28.359375 L 11.109375 -28.359375 L 11.109375 0 Z M 3.75 0 "/></g></g></g><g fill="#fffaf3" fill-opacity="1"><g transform="translate(311.747433, 204.451403)"><g><path d="M 22.125 0 L 22.125 -15.90625 C 22.125 -20.894531 20.4375 -23.390625 17.0625 -23.390625 C 15.28125 -23.390625 13.84375 -22.625 12.75 -21.09375 C 11.65625 -19.5625 11.109375 -17.597656 11.109375 -15.203125 L 11.109375 0 L 3.75 0 L 3.75 -22.015625 C 3.75 -23.535156 3.726562 -24.78125 3.6875 -25.75 C 3.644531 -26.71875 3.59375 -27.585938 3.53125 -28.359375 L 10.5625 -28.359375 C 10.613281 -28.023438 10.679688 -27.140625 10.765625 -25.703125 C 10.859375 -24.265625 10.90625 -23.273438 10.90625 -22.734375 L 11.015625 -22.734375 C 12.003906 -24.898438 13.25 -26.472656 14.75 -27.453125 C 16.257812 -28.429688 18.054688 -28.921875 20.140625 -28.921875 C 23.140625 -28.921875 25.441406 -27.992188 27.046875 -26.140625 C 28.660156 -24.285156 29.46875 -21.578125 29.46875 -18.015625 L 29.46875 0 Z M 22.125 0 "/></g></g></g></svg>